<?xml version="1.0" encoding="UTF-8" standalone="no"?>
<svg
   xmlns:dc="http://purl.org/dc/elements/1.1/"
   xmlns:cc="http://creativecommons.org/ns#"
   xmlns:rdf="http://www.w3.org/1999/02/22-rdf-syntax-ns#"
   xmlns:svg="http://www.w3.org/2000/svg"
   xmlns="http://www.w3.org/2000/svg"
   xmlns:xlink="http://www.w3.org/1999/xlink"
   xmlns:sodipodi="http://sodipodi.sourceforge.net/DTD/sodipodi-0.dtd"
   xmlns:inkscape="http://www.inkscape.org/namespaces/inkscape"
   version="1.1"
   width="309.05649"
   height="94.939056"
   id="svg11849"
   sodipodi:docname="Энергетика.cdr"
   inkscape:version="0.92.3 (2405546, 2018-03-11)">
  <metadata
     id="metadata11853">
    <rdf:RDF>
      <cc:Work
         rdf:about="">
        <dc:format>image/svg+xml</dc:format>
        <dc:type
           rdf:resource="http://purl.org/dc/dcmitype/StillImage" />
        <dc:title></dc:title>
      </cc:Work>
    </rdf:RDF>
  </metadata>
  <sodipodi:namedview
     pagecolor="#ffffff"
     bordercolor="#666666"
     borderopacity="1"
     objecttolerance="10"
     gridtolerance="10"
     guidetolerance="10"
     inkscape:pageopacity="0"
     inkscape:pageshadow="2"
     inkscape:window-width="1366"
     inkscape:window-height="705"
     id="namedview11851"
     showgrid="false"
     inkscape:zoom="2.1627431"
     inkscape:cx="172.04402"
     inkscape:cy="12.178802"
     inkscape:window-x="-8"
     inkscape:window-y="-8"
     inkscape:window-maximized="1"
     inkscape:current-layer="svg11849" />
  <path
     d="m -68.716336,-40.759285 v -24.8775 H 317.20536 v 24.8775 z"
     style="fill:#ffffff;fill-rule:evenodd"
     id="path10956"
     inkscape:connector-curvature="0" />
  <path
     d="m 10.519264,-54.080785 m 2.5326,-2.0047 h 0.455 v -1.0602 h -0.455 v 0.3262 c -0.2318,-0.2575 -0.5495,-0.382 -0.9573,-0.382 -0.9186,0 -1.5753,0.6696 -1.5753,1.5925 0,0.9315 0.6911,1.5925 1.6268,1.5925 0.9787,0 1.5625,-0.5709 1.5625,-1.5152 v -0.0945 h -1.3092 v 0.4937 h 0.5366 c -0.0387,0.3477 -0.322,0.5666 -0.7384,0.5666 -0.5322,0 -0.8627,-0.4035 -0.8627,-1.0603 0,-0.661 0.3348,-1.0517 0.8584,-1.0517 0.3692,0 0.6311,0.1889 0.8586,0.5924 z m 0.8842,2.0047 m 1.9188,-0.498 h -0.8585 v -2.0905 h 0.3305 v -0.4764 h -1.3908 v 0.4764 h 0.3305 v 2.0905 h -0.3305 v 0.498 h 2.3996 v -1.4381 h -0.4808 z m 0.7684,0.498 m 1.6226,-3.1207 c -0.9616,0 -1.6226,0.6653 -1.6226,1.5925 0,0.9229 0.6696,1.5925 1.5968,1.5925 0.9272,0 1.5968,-0.6524 1.5968,-1.5925 0,-0.9444 -0.6524,-1.5925 -1.571,-1.5925 z m -0.0258,2.6313 c -0.4507,0 -0.7812,-0.4035 -0.7812,-1.0517 0,-0.6481 0.3262,-1.0517 0.7812,-1.0517 0.455,0 0.7812,0.4036 0.7812,1.0517 0,0.6482 -0.3305,1.0517 -0.7812,1.0517 z m 1.7986,0.4894 m 1.0602,-0.498 v -0.8714 h 0.1803 c 0.382,0 0.5795,0.1674 0.5795,0.4808 0,0.2919 -0.1674,0.3906 -0.5323,0.3906 z m 0,-1.3221 v -0.7684 h 0.2018 c 0.3262,0 0.4679,0.0945 0.4679,0.3778 0,0.2618 -0.1588,0.3906 -0.4851,0.3906 z m 0.2791,-1.2448 h -1.3393 v 0.4764 h 0.3305 v 2.0905 h -0.3305 v 0.498 h 1.4895 c 0.6997,0 1.0602,-0.3005 1.0602,-0.8629 0,-0.3605 -0.1931,-0.6309 -0.5666,-0.7683 0.3306,-0.1159 0.4679,-0.3005 0.4679,-0.6182 0,-0.5537 -0.3691,-0.8155 -1.1117,-0.8155 z m 1.5066,3.0649 z m 0,0 h 1.3222 v -0.498 h -0.3391 l 0.1631,-0.5752 h 0.8885 l 0.1674,0.5752 h -0.3262 v 0.498 h 1.3607 v -0.498 h -0.279 l -0.6825,-2.0905 h 0.3692 v -0.4764 h -2.0476 v 0.4764 h 0.4164 l -0.6782,2.0905 h -0.3349 z m 1.2621,-1.4724 0.3348,-1.1332 0.3305,1.1332 z m 2.172,1.4724 m 1.9188,-0.498 h -0.8586 v -2.0905 h 0.3306 v -0.4764 h -1.3908 v 0.4764 h 0.3305 v 2.0905 h -0.3305 v 0.498 h 2.3995 v -1.4381 h -0.4807 z"
     style="fill:#1b1918;fill-rule:evenodd"
     id="path10958"
     inkscape:connector-curvature="0" />
  <path
     d="m 10.476264,-48.903985 m 2.0261,-0.498 h -0.9658 v -0.837 h 0.8027 v -0.5022 h -0.8027 v -0.7513 h 0.9658 v 0.4722 h 0.5538 v -0.9486 h -2.5799 v 0.4764 h 0.3305 v 2.0905 h -0.3305 v 0.498 h 2.5799 v -1.0002 h -0.5538 z m 0.7684,0.498 m 0.8628,-2.3094 1.3307,2.3094 h 0.6611 v -2.5885 h 0.3305 v -0.4764 h -1.2105 v 0.4764 h 0.3305 l 0.0215,1.5067 -1.1376,-1.9831 h -1.189 v 0.4764 h 0.3305 v 2.0905 h -0.3305 v 0.498 h 1.2105 v -0.498 h -0.3305 z m 2.5154,2.3094 m 2.5326,-2.0047 h 0.455 v -1.0602 h -0.455 v 0.3262 c -0.2318,-0.2575 -0.5494,-0.382 -0.9572,-0.382 -0.9186,0 -1.5754,0.6696 -1.5754,1.5925 0,0.9315 0.6911,1.5925 1.6269,1.5925 0.9787,0 1.5625,-0.5709 1.5625,-1.5152 v -0.0945 h -1.3092 v 0.4937 h 0.5365 c -0.0386,0.3477 -0.3219,0.5666 -0.7383,0.5666 -0.5323,0 -0.8628,-0.4035 -0.8628,-1.0603 0,-0.661 0.3348,-1.0516 0.8585,-1.0516 0.3692,0 0.631,0.1889 0.8585,0.5923 z m 0.8886,2.0047 m 1.0603,-2.5885 h 0.3305 v -0.4764 h -1.3908 v 0.4764 h 0.3305 v 2.0905 h -0.3305 v 0.498 h 1.3908 v -0.498 h -0.3305 z m 0.5537,2.5885 m 0.8628,-2.3094 1.3307,2.3094 h 0.6611 v -2.5885 h 0.3305 v -0.4764 h -1.2105 v 0.4764 h 0.3305 l 0.0215,1.5067 -1.1376,-1.9831 h -1.189 v 0.4764 h 0.3305 v 2.0905 h -0.3305 v 0.498 h 1.2105 v -0.498 h -0.3305 z m 2.4725,2.3094 m 2.0261,-0.498 h -0.9658 v -0.837 h 0.8027 v -0.5022 h -0.8027 v -0.7513 h 0.9658 v 0.4722 h 0.5537 v -0.9486 h -2.5798 v 0.4764 h 0.3305 v 2.0905 h -0.3305 v 0.498 h 2.5798 v -1.0002 h -0.5537 z m 0.7641,0.498 m 2.0261,-0.498 h -0.9659 v -0.837 h 0.8027 v -0.5022 h -0.8027 v -0.7513 h 0.9659 v 0.4722 h 0.5537 v -0.9486 h -2.5798 v 0.4764 h 0.3305 v 2.0905 h -0.3305 v 0.498 h 2.5798 v -1.0002 h -0.5537 z m 0.764,0.498 m 1.0603,-2.5885 h 0.2189 c 0.3821,0 0.558,0.0945 0.558,0.3735 0,0.2833 -0.1759,0.3778 -0.558,0.3778 h -0.2189 z m 0,1.2363 h 0.3348 l 0.6954,1.3522 h 0.8585 v -0.498 h -0.3477 l -0.4979,-0.9787 c 0.3434,-0.0815 0.5194,-0.3348 0.5194,-0.7297 0,-0.6224 -0.3649,-0.8585 -1.1676,-0.8585 h -1.4552 v 0.4764 h 0.3306 v 2.0905 h -0.3306 v 0.498 h 1.3908 v -0.498 h -0.3305 z m 2.0261,1.3522 m 1.0602,-2.5885 h 0.3306 v -0.4764 h -1.3908 v 0.4764 h 0.3305 v 2.0905 h -0.3305 v 0.498 h 1.3908 v -0.498 h -0.3306 z m 0.5538,2.5885 m 0.8628,-2.3094 1.3307,2.3094 h 0.661 v -2.5885 h 0.3306 v -0.4764 h -1.2106 v 0.4764 h 0.3306 l 0.0214,1.5067 -1.1375,-1.9831 h -1.189 v 0.4764 h 0.3305 v 2.0905 h -0.3305 v 0.498 h 1.2105 v -0.498 h -0.3305 z m 2.5154,2.3094 m 2.5326,-2.0047 h 0.455 v -1.0602 h -0.455 v 0.3262 c -0.2318,-0.2575 -0.5494,-0.382 -0.9572,-0.382 -0.9186,0 -1.5754,0.6696 -1.5754,1.5925 0,0.9315 0.6911,1.5925 1.6269,1.5925 0.9787,0 1.5625,-0.5709 1.5625,-1.5152 v -0.0945 h -1.3092 v 0.4937 h 0.5365 c -0.0386,0.3477 -0.3219,0.5666 -0.7383,0.5666 -0.5323,0 -0.8628,-0.4035 -0.8628,-1.0603 0,-0.661 0.3348,-1.0516 0.8585,-1.0516 0.3692,0 0.631,0.1889 0.8585,0.5923 z"
     style="fill:#1b1918;fill-rule:evenodd"
     id="path10960"
     inkscape:connector-curvature="0" />
  <defs
     id="defs10968">
    <linearGradient
       id="grad57">
      <stop
         offset="0%"
         stop-color="#bb0e16"
         stop-opacity="1.0000"
         id="stop10962" />
      <stop
         offset="100%"
         stop-color="#ffffff"
         stop-opacity="1.0000"
         id="stop10964" />
    </linearGradient>
    <linearGradient
       xlink:href="#grad57"
       id="grad58"
       x1="80.245562"
       y1="5.7610942"
       x2="80.245562"
       y2="14.564355"
       gradientTransform="matrix(0.80809827,0,0,1.2374733,-68.781636,-65.598985)"
       gradientUnits="userSpaceOnUse" />
  </defs>
  <path
     d="m -3.9353362,-47.575985 6.4419,-10.8938 0.672,1.1638 z"
     style="fill:url(#grad58)"
     id="path10970"
     inkscape:connector-curvature="0" />
  <defs
     id="defs10978">
    <linearGradient
       id="grad59">
      <stop
         offset="0%"
         stop-color="#bb0e16"
         stop-opacity="1.0000"
         id="stop10972" />
      <stop
         offset="100%"
         stop-color="#ffffff"
         stop-opacity="1.0000"
         id="stop10974" />
    </linearGradient>
    <linearGradient
       xlink:href="#grad59"
       id="grad60"
       x1="64.352776"
       y1="9.699016"
       x2="64.352776"
       y2="18.161219"
       gradientTransform="matrix(1.007669,0,0,0.99238933,-68.781636,-65.598985)"
       gradientUnits="userSpaceOnUse" />
  </defs>
  <path
     d="m -3.9353362,-47.575985 7.883,-8.3978 0.6441,1.1155 z"
     style="fill:url(#grad60)"
     id="path10980"
     inkscape:connector-curvature="0" />
  <defs
     id="defs10988">
    <linearGradient
       id="grad61">
      <stop
         offset="0%"
         stop-color="#bf1c15"
         stop-opacity="1.0000"
         id="stop10982" />
      <stop
         offset="100%"
         stop-color="#ffffff"
         stop-opacity="1.0000"
         id="stop10984" />
    </linearGradient>
    <linearGradient
       xlink:href="#grad61"
       id="grad62"
       x1="50.043049"
       y1="15.688376"
       x2="50.043049"
       y2="23.35439"
       gradientTransform="matrix(1.2958103,0,0,0.77171788,-68.781636,-65.598985)"
       gradientUnits="userSpaceOnUse" />
  </defs>
  <path
     d="m -3.9353362,-47.575985 9.3159,-5.916 0.6178,1.0701 z"
     style="fill:url(#grad62)"
     id="path10990"
     inkscape:connector-curvature="0" />
  <defs
     id="defs10998">
    <linearGradient
       id="grad63">
      <stop
         offset="0%"
         stop-color="#bd1316"
         stop-opacity="1.0000"
         id="stop10992" />
      <stop
         offset="100%"
         stop-color="#ffffff"
         stop-opacity="1.0000"
         id="stop10994" />
    </linearGradient>
    <linearGradient
       xlink:href="#grad63"
       id="grad64"
       x1="35.878409"
       y1="26.301691"
       x2="35.878409"
       y2="32.574601"
       gradientTransform="matrix(1.8073906,0,0,0.55328382,-68.781636,-65.598985)"
       gradientUnits="userSpaceOnUse" />
  </defs>
  <path
     d="m -3.9353362,-47.575985 10.7277,-3.4707 0.6099,1.0564 z"
     style="fill:url(#grad64)"
     id="path11000"
     inkscape:connector-curvature="0" />
  <defs
     id="defs11007">
    <linearGradient
       id="grad65"
       gradientTransform="matrix(3.507137,0,0,0.28513286,-68.781636,-65.598985)"
       x1="18.489811"
       y1="59.594674"
       x2="22.12075"
       y2="59.594674"
       gradientUnits="userSpaceOnUse">
      <stop
         offset="0%"
         stop-color="#be1815"
         stop-opacity="1.0000"
         id="stop11002" />
      <stop
         offset="100%"
         stop-color="#ffffff"
         stop-opacity="1.0000"
         id="stop11004" />
    </linearGradient>
  </defs>
  <path
     d="m -3.9353362,-47.575985 12.1365,-1.0306 0.5977,1.0353 z"
     style="fill:url(#grad65)"
     id="path11009"
     inkscape:connector-curvature="0" />
  <defs
     id="defs11019">
    <linearGradient
       id="grad66">
      <stop
         offset="0.0000%"
         stop-color="#e31e24"
         stop-opacity="1.0000"
         id="stop11011" />
      <stop
         offset="12.0000%"
         stop-color="#ffffff"
         stop-opacity="1.0000"
         id="stop11013" />
      <stop
         offset="0.0000%"
         stop-color="#d6d6d6"
         stop-opacity="1.0000"
         id="stop11015" />
    </linearGradient>
    <linearGradient
       xlink:href="#grad66"
       id="grad67"
       x1="0.02756769"
       y1="264.06247"
       x2="0.02756769"
       y2="501.62943"
       gradientTransform="matrix(1.6250907,0,0,0.61535025,129.46521,29.592049)"
       gradientUnits="userSpaceOnUse" />
  </defs>
  <path
     d="M -28.561936,229.29871 H 277.15706 v 0.2044 H -28.561936 Z"
     style="fill:#ffffff;fill-rule:evenodd"
     id="path11023"
     inkscape:connector-curvature="0" />
  <text
     x="101.60896"
     y="237.48033"
     id="text11031">
    <tspan
       font-size="3.0000"
       id="tspan11025"
       style="font-size:3px;font-family:Arial;fill:#ffffff">Политика</tspan>
    <tspan
       font-size="3.0000"
       id="tspan11027"
       style="font-size:3px;font-family:Arial;fill:#ffffff" />
    <tspan
       font-size="3.0000"
       id="tspan11029"
       style="font-size:3px;font-family:Arial;fill:#ffffff">конфиденциальности</tspan>
  </text>
  <text
     x="183.73027"
     y="219.55742"
     id="text11067">
    <tspan
       font-size="3.0000"
       id="tspan11033"
       style="font-size:3px;font-family:Arial;fill:#ffffff">О</tspan>
    <tspan
       font-size="3.0000"
       id="tspan11035"
       style="font-size:3px;font-family:Arial;fill:#ffffff" />
    <tspan
       font-size="3.0000"
       id="tspan11037"
       style="font-size:3px;font-family:Arial;fill:#ffffff">компании</tspan>
    <tspan
       font-size="3.0000"
       id="tspan11039"
       style="font-size:3px;font-family:Arial;fill:#ffffff" />
    <tspan
       font-size="3.0000"
       id="tspan11041"
       style="font-size:3px;font-family:Arial;fill:#ffffff">Услуги</tspan>
    <tspan
       font-size="3.0000"
       id="tspan11043"
       style="font-size:3px;font-family:Arial;fill:#ffffff" />
    <tspan
       font-size="3.0000"
       id="tspan11045"
       style="font-size:3px;font-family:Arial;fill:#ffffff">Сфера</tspan>
    <tspan
       font-size="3.0000"
       id="tspan11047"
       style="font-size:3px;font-family:Arial;fill:#ffffff" />
    <tspan
       font-size="3.0000"
       id="tspan11049"
       style="font-size:3px;font-family:Arial;fill:#ffffff">деятельности</tspan>
    <tspan
       font-size="3.0000"
       id="tspan11051"
       style="font-size:3px;font-family:Arial;fill:#ffffff" />
    <tspan
       font-size="3.0000"
       id="tspan11053"
       style="font-size:3px;font-family:Arial;fill:#ffffff">Поставка</tspan>
    <tspan
       font-size="3.0000"
       id="tspan11055"
       style="font-size:3px;font-family:Arial;fill:#ffffff" />
    <tspan
       font-size="3.0000"
       id="tspan11057"
       style="font-size:3px;font-family:Arial;fill:#ffffff">оборудования</tspan>
    <tspan
       font-size="3.0000"
       id="tspan11059"
       style="font-size:3px;font-family:Arial;fill:#ffffff" />
    <tspan
       font-size="3.0000"
       id="tspan11061"
       style="font-size:3px;font-family:Arial;fill:#ffffff">Проекты</tspan>
    <tspan
       font-size="3.0000"
       id="tspan11063"
       style="font-size:3px;font-family:Arial;fill:#ffffff" />
    <tspan
       font-size="3.0000"
       id="tspan11065"
       style="font-size:3px;font-family:Arial;fill:#ffffff">Контакты</tspan>
  </text>
  <path
     d="m 14.337564,209.65341 m 3.1908,-2.5256 h 0.5733 v -1.3358 h -0.5733 v 0.411 c -0.292,-0.3245 -0.6922,-0.4813 -1.206,-0.4813 -1.1573,0 -1.9848,0.8437 -1.9848,2.0064 0,1.1736 0.8707,2.0064 2.0497,2.0064 1.2331,0 1.9686,-0.7192 1.9686,-1.909 v -0.119 h -1.6495 v 0.6219 h 0.676 c -0.0487,0.4381 -0.4056,0.7139 -0.9302,0.7139 -0.6706,0 -1.087,-0.5083 -1.087,-1.3358 0,-0.8329 0.4218,-1.325 1.0816,-1.325 0.4651,0 0.795,0.238 1.0816,0.7463 z m 1.1141,2.5256 m 2.4175,-0.6273 h -1.0817 v -2.6338 h 0.4164 v -0.6003 h -1.7522 v 0.6003 h 0.4164 v 2.6338 h -0.4164 v 0.6273 h 3.0232 v -1.8117 h -0.6057 z m 0.968,0.6273 m 2.0443,-3.9317 c -1.2114,0 -2.0443,0.8383 -2.0443,2.0064 0,1.1628 0.8437,2.0064 2.0118,2.0064 1.1682,0 2.0119,-0.822 2.0119,-2.0064 0,-1.1898 -0.8221,-2.0064 -1.9794,-2.0064 z m -0.0325,3.3152 c -0.5678,0 -0.9842,-0.5084 -0.9842,-1.325 0,-0.8166 0.411,-1.325 0.9842,-1.325 0.5733,0 0.9843,0.5084 0.9843,1.325 0,0.8166 -0.4164,1.325 -0.9843,1.325 z m 2.266,0.6165 m 1.3359,-0.6273 v -1.0979 h 0.2271 c 0.4813,0 0.7301,0.2109 0.7301,0.6058 0,0.3677 -0.2109,0.4921 -0.6706,0.4921 z m 0,-1.6657 v -0.9681 h 0.2542 c 0.411,0 0.5895,0.119 0.5895,0.4759 0,0.3299 -0.2002,0.4922 -0.6112,0.4922 z m 0.3515,-1.5684 h -1.6874 v 0.6003 h 0.4165 v 2.6338 h -0.4165 v 0.6273 h 1.8767 c 0.8815,0 1.3358,-0.3785 1.3358,-1.087 0,-0.4543 -0.2434,-0.795 -0.7139,-0.9681 0.4165,-0.146 0.5895,-0.3785 0.5895,-0.7788 0,-0.6976 -0.4651,-1.0275 -1.4007,-1.0275 z m 1.8983,3.8614 z m 0,0 h 1.6657 v -0.6273 h -0.4272 l 0.2054,-0.7247 h 1.1195 l 0.211,0.7247 h -0.4111 v 0.6273 h 1.7144 v -0.6273 h -0.3515 l -0.8599,-2.6338 h 0.4651 v -0.6003 h -2.5797 v 0.6003 h 0.5246 l -0.8545,2.6338 h -0.4218 z m 1.59,-1.855 0.4218,-1.4277 0.4164,1.4277 z m 2.7365,1.855 m 2.4175,-0.6273 h -1.0817 v -2.6338 h 0.4164 v -0.6003 h -1.7522 v 0.6003 h 0.4164 v 2.6338 h -0.4164 v 0.6273 h 3.0232 v -1.8117 h -0.6057 z"
     style="fill:#ffffff;fill-rule:evenodd"
     id="path11069"
     inkscape:connector-curvature="0" />
  <path
     d="m 14.283464,216.17571 m 2.5527,-0.6274 h -1.2169 v -1.0546 h 1.0114 v -0.6327 h -1.0114 v -0.9465 h 1.2169 v 0.5949 h 0.6976 v -1.1952 h -3.2503 v 0.6003 h 0.4164 v 2.6338 h -0.4164 v 0.6274 h 3.2503 v -1.2601 h -0.6976 z m 0.968,0.6274 m 1.0871,-2.9096 1.6765,2.9096 h 0.8329 v -3.2612 h 0.4164 v -0.6003 h -1.5251 v 0.6003 h 0.4164 l 0.0271,1.8983 -1.4332,-2.4986 h -1.4981 v 0.6003 h 0.4165 v 2.6338 h -0.4165 v 0.6274 h 1.5252 v -0.6274 h -0.4165 z m 3.1692,2.9096 m 3.1908,-2.5257 h 0.5732 v -1.3358 h -0.5732 v 0.4111 c -0.2921,-0.3245 -0.6923,-0.4814 -1.206,-0.4814 -1.1574,0 -1.9848,0.8437 -1.9848,2.0064 0,1.1736 0.8707,2.0065 2.0497,2.0065 1.233,0 1.9685,-0.7193 1.9685,-1.9091 v -0.119 h -1.6494 v 0.622 h 0.676 c -0.0487,0.438 -0.4056,0.7138 -0.9303,0.7138 -0.6706,0 -1.087,-0.5083 -1.087,-1.3358 0,-0.8328 0.4219,-1.325 1.0816,-1.325 0.4651,0 0.7951,0.238 1.0817,0.7463 z m 1.1195,2.5257 m 1.3358,-3.2612 h 0.4164 v -0.6003 h -1.7522 v 0.6003 h 0.4164 v 2.6338 h -0.4164 v 0.6274 h 1.7522 v -0.6274 h -0.4164 z m 0.6976,3.2612 m 1.0871,-2.9096 1.6765,2.9096 h 0.8329 v -3.2612 h 0.4164 v -0.6003 h -1.5251 v 0.6003 h 0.4164 l 0.027,1.8983 -1.4331,-2.4986 h -1.4981 v 0.6003 h 0.4164 v 2.6338 h -0.4164 v 0.6274 h 1.5251 v -0.6274 h -0.4164 z m 3.1151,2.9096 m 2.5526,-0.6274 h -1.2168 v -1.0546 h 1.0113 v -0.6327 h -1.0113 v -0.9465 h 1.2168 v 0.5949 h 0.6977 v -1.1952 h -3.2503 v 0.6003 h 0.4164 v 2.6338 h -0.4164 v 0.6274 h 3.2503 v -1.2601 h -0.6977 z m 0.9627,0.6274 m 2.5526,-0.6274 h -1.2168 v -1.0546 h 1.0113 v -0.6327 h -1.0113 v -0.9465 h 1.2168 v 0.5949 h 0.6977 v -1.1952 h -3.2503 v 0.6003 h 0.4164 v 2.6338 h -0.4164 v 0.6274 h 3.2503 v -1.2601 h -0.6977 z m 0.9627,0.6274 m 1.3358,-3.2612 h 0.2758 c 0.4813,0 0.7031,0.119 0.7031,0.4705 0,0.357 -0.2218,0.476 -0.7031,0.476 h -0.2758 z m 0,1.5576 h 0.4218 l 0.8761,1.7036 h 1.0817 v -0.6274 h -0.4381 l -0.6273,-1.233 c 0.4326,-0.1028 0.6544,-0.4219 0.6544,-0.9194 0,-0.7842 -0.4597,-1.0817 -1.471,-1.0817 h -1.8334 v 0.6003 h 0.4164 v 2.6338 h -0.4164 v 0.6274 h 1.7522 v -0.6274 h -0.4164 z m 2.5526,1.7036 m 1.3358,-3.2612 h 0.4165 v -0.6003 h -1.7523 v 0.6003 h 0.4164 v 2.6338 h -0.4164 v 0.6274 h 1.7523 v -0.6274 h -0.4165 z m 0.6977,3.2612 m 1.087,-2.9096 1.6766,2.9096 h 0.8328 v -3.2612 h 0.4165 v -0.6003 h -1.5252 v 0.6003 h 0.4165 l 0.027,1.8983 -1.4331,-2.4986 h -1.4981 v 0.6003 h 0.4164 v 2.6338 h -0.4164 v 0.6274 h 1.5251 v -0.6274 h -0.4164 z m 3.1692,2.9096 m 3.1908,-2.5257 h 0.5733 v -1.3358 h -0.5733 v 0.4111 c -0.292,-0.3245 -0.6922,-0.4814 -1.206,-0.4814 -1.1574,0 -1.9848,0.8437 -1.9848,2.0064 0,1.1736 0.8707,2.0065 2.0497,2.0065 1.233,0 1.9686,-0.7193 1.9686,-1.9091 v -0.119 h -1.6495 v 0.622 h 0.676 c -0.0487,0.438 -0.4056,0.7138 -0.9302,0.7138 -0.6706,0 -1.087,-0.5083 -1.087,-1.3358 0,-0.8328 0.4218,-1.325 1.0816,-1.325 0.4651,0 0.795,0.238 1.0816,0.7463 z"
     style="fill:#ffffff;fill-rule:evenodd"
     id="path11071"
     inkscape:connector-curvature="0" />
  <path
     d="m -3.8736362,217.84891 8.1162,-13.7251 0.8466,1.4663 z"
     style="fill:#ffffff;fill-rule:evenodd"
     id="path11073"
     inkscape:connector-curvature="0" />
  <path
     d="m -3.8736362,217.84891 9.9317,-10.5804 0.8115,1.4054 z"
     style="fill:#ffffff;fill-rule:evenodd"
     id="path11075"
     inkscape:connector-curvature="0" />
  <path
     d="m -3.8736362,217.84891 11.7371,-7.4535 0.7784,1.3481 z"
     style="fill:#ffffff;fill-rule:evenodd"
     id="path11077"
     inkscape:connector-curvature="0" />
  <path
     d="m -3.8736362,217.84891 13.5158,-4.3728 0.7684002,1.331 z"
     style="fill:#ffffff;fill-rule:evenodd"
     id="path11079"
     inkscape:connector-curvature="0" />
  <path
     d="m -3.8736362,217.84891 15.2907002,-1.2985 0.753,1.3043 z"
     style="fill:#ffffff;fill-rule:evenodd"
     id="path11081"
     inkscape:connector-curvature="0" />
  <text
     x="-3.8736391"
     y="130.16891"
     id="text11085">
    <tspan
       font-size="12.5000"
       id="tspan11083"
       style="font-size:12.5px;font-family:'HelveticaNeueLT CYR 65 Md';fill:#ffffff">8 800 892 15 47</tspan>
  </text>
  <text
     x="-3.8730364"
     y="183.67932"
     id="text11127">
    <tspan
       font-size="6.0000"
       id="tspan11087"
       style="font-size:6px;font-family:Arial;fill:#ffffff">Инжинеринговая</tspan>
    <tspan
       font-size="6.0000"
       id="tspan11089"
       style="font-size:6px;font-family:Arial;fill:#ffffff" />
    <tspan
       font-size="6.0000"
       id="tspan11091"
       style="font-size:6px;font-family:Arial;fill:#ffffff">компания</tspan>
    <tspan
       font-size="6.0000"
       id="tspan11093"
       style="font-size:6px;font-family:Arial;fill:#ffffff">«Global Ingineering»</tspan>
    <tspan
       font-size="6.0000"
       id="tspan11095"
       style="font-size:6px;font-family:Arial;fill:#ffffff">Казахстан</tspan>
    <tspan
       font-size="6.0000"
       id="tspan11097"
       style="font-size:6px;font-family:Arial;fill:#ffffff">,</tspan>
    <tspan
       font-size="6.0000"
       id="tspan11099"
       style="font-size:6px;font-family:Arial;fill:#ffffff">г</tspan>
    <tspan
       font-size="6.0000"
       id="tspan11101"
       style="font-size:6px;font-family:Arial;fill:#ffffff">.</tspan>
    <tspan
       font-size="6.0000"
       id="tspan11103"
       style="font-size:6px;font-family:Arial;fill:#ffffff">Алматы</tspan>
    <tspan
       font-size="6.0000"
       id="tspan11105"
       style="font-size:6px;font-family:Arial;fill:#ffffff">, 050000,</tspan>
    <tspan
       font-size="6.0000"
       id="tspan11107"
       style="font-size:6px;font-family:Arial;fill:#ffffff">ул</tspan>
    <tspan
       font-size="6.0000"
       id="tspan11109"
       style="font-size:6px;font-family:Arial;fill:#ffffff">.</tspan>
    <tspan
       font-size="6.0000"
       id="tspan11111"
       style="font-size:6px;font-family:Arial;fill:#ffffff">Абая</tspan>
    <tspan
       font-size="6.0000"
       id="tspan11113"
       style="font-size:6px;font-family:Arial;fill:#ffffff" />
    <tspan
       font-size="6.0000"
       id="tspan11115"
       style="font-size:6px;font-family:Arial;fill:#ffffff">Ауэзова</tspan>
    <tspan
       font-size="6.0000"
       id="tspan11117"
       style="font-size:6px;font-family:Arial;fill:#ffffff">, 14,</tspan>
    <tspan
       font-size="6.0000"
       id="tspan11119"
       style="font-size:6px;font-family:Arial;fill:#ffffff">корпус</tspan>
    <tspan
       font-size="6.0000"
       id="tspan11121"
       style="font-size:6px;font-family:Arial;fill:#ffffff" />
    <tspan
       font-size="6.0000"
       id="tspan11123"
       style="font-size:6px;font-family:Arial;fill:#ffffff">А</tspan>
    <tspan
       font-size="6.0000"
       id="tspan11125"
       style="font-size:6px;font-family:Arial;fill:#ffffff">.mail@mail.ru</tspan>
  </text>
  <path
     d="m 159.70306,116.02101 v 6.1527 q 0,1.0519 1.052,1.0519 h 91.3482 q 1.0519,0 1.0519,-1.0519 v -6.1527 q 0,-1.0519 -1.0519,-1.0519 h -91.3482 q -1.052,0 -1.052,1.0519 z"
     style="fill:#ffffff;fill-rule:evenodd"
     id="path11129"
     inkscape:connector-curvature="0" />
  <path
     d="m 159.70306,127.32351 v 6.453 q 0,0.9018 0.9018,0.9018 h 91.6485 q 0.9018,0 0.9018,-0.9018 v -6.453 q 0,-0.9017 -0.9018,-0.9017 h -91.6485 q -0.9018,0 -0.9018,0.9017 z"
     style="fill:#ffffff;fill-rule:evenodd"
     id="path11131"
     inkscape:connector-curvature="0" />
  <path
     d="m 159.70306,139.09391 v 21.2663 q 0,1.3523 1.3524,1.3523 h 90.7474 q 1.3523,0 1.3523,-1.3523 v -21.2663 q 0,-1.3523 -1.3523,-1.3523 h -90.7474 q -1.3524,0 -1.3524,1.3523 z"
     style="fill:#ffffff;fill-rule:evenodd"
     id="path11133"
     inkscape:connector-curvature="0" />
  <text
     x="164.41077"
     y="120.72522"
     id="text11145">
    <tspan
       font-size="3.5000"
       id="tspan11135"
       style="font-size:3.5px;font-family:Arial;fill:#9b9d9f">Ф</tspan>
    <tspan
       font-size="3.5000"
       id="tspan11137"
       style="font-size:3.5px;font-family:Arial;fill:#9b9d9f">.</tspan>
    <tspan
       font-size="3.5000"
       id="tspan11139"
       style="font-size:3.5px;font-family:Arial;fill:#9b9d9f">И</tspan>
    <tspan
       font-size="3.5000"
       id="tspan11141"
       style="font-size:3.5px;font-family:Arial;fill:#9b9d9f">.</tspan>
    <tspan
       font-size="3.5000"
       id="tspan11143"
       style="font-size:3.5px;font-family:Arial;fill:#9b9d9f">О</tspan>
  </text>
  <text
     x="164.31607"
     y="131.89401"
     id="text11149">
    <tspan
       font-size="3.5000"
       id="tspan11147"
       style="font-size:3.5px;font-family:Arial;fill:#9b9d9f">e-mail</tspan>
  </text>
  <text
     x="164.44788"
     y="143.26831"
     id="text11153">
    <tspan
       font-size="3.5000"
       id="tspan11151"
       style="font-size:3.5px;font-family:Arial;fill:#9b9d9f">Сообщение</tspan>
  </text>
  <path
     d="m 159.70306,170.97511 v 6.2303 q 0,2.9394 2.9395,2.9394 h 87.4232 q 2.9395,0 2.9395,-2.9394 v -6.2303 q 0,-2.9394 -2.9395,-2.9394 h -87.4232 q -2.9395,0 -2.9395,2.9394 z"
     style="fill:#ffffff;fill-rule:evenodd"
     id="path11155"
     inkscape:connector-curvature="0" />
  <text
     x="189.07558"
     y="176.03572"
     id="text11159">
    <tspan
       font-size="5.5000"
       id="tspan11157"
       style="font-size:5.5px;font-family:'Gotham Pro Black';fill:#e30016">ОТПРАВИТЬ</tspan>
  </text>
  <g
     id="Layer1007"
     transform="translate(-77.1044,-67.910864)">
    <g
       id="Layer1008">
      <path
         d="m 77.499,109.9857 a 0.3946,0.3946 0 0 1 0.3946,0.3946 0.3946,0.3946 0 1 1 -0.3946,-0.3946 z"
         style="fill:#1b1918;fill-rule:evenodd"
         id="path11163"
         inkscape:connector-curvature="0" />
      <path
         d="m 93.907,109.9857 a 0.3946,0.3946 0 0 1 0.3947,0.3946 0.3946,0.3946 0 1 1 -0.3947,-0.3946 z"
         style="fill:#1b1918;fill-rule:evenodd"
         id="path11165"
         inkscape:connector-curvature="0" />
      <path
         d="m 110.1021,109.9857 a 0.3946,0.3946 0 0 1 0.3946,0.3946 0.3946,0.3946 0 1 1 -0.3946,-0.3946 z"
         style="fill:#1b1918;fill-rule:evenodd"
         id="path11167"
         inkscape:connector-curvature="0" />
      <path
         d="m 182.6038,99.4083 -0.6862,0.7291 -1.0721,-0.2787 c 0,0 -1.5975,-5.4143 -2.8412,-6.079 -1.2436,-0.6647 3.3879,0.6969 3.3879,0.6969 z"
         style="fill:#c4c6c8;fill-rule:evenodd"
         id="path11169"
         inkscape:connector-curvature="0" />
      <path
         d="m 180.9528,94.155 0.9648,5.9824 2.3801,-0.6219 0.0644,-4.7173 z"
         style="fill:#9b9d9f;fill-rule:evenodd"
         id="path11171"
         inkscape:connector-curvature="0" />
      <path
         d="m 173.5302,97.4805 -0.5579,0.5928 -0.8718,-0.2266 c 0,0 -1.2989,-4.4023 -2.31,-4.9427 -1.0112,-0.5405 2.7546,0.5666 2.7546,0.5666 z"
         style="fill:#c4c6c8;fill-rule:evenodd"
         id="path11173"
         inkscape:connector-curvature="0" />
      <path
         d="m 172.1878,93.2091 0.7845,4.8642 1.9352,-0.5056 0.0523,-3.8356 z"
         style="fill:#9b9d9f;fill-rule:evenodd"
         id="path11175"
         inkscape:connector-curvature="0" />
      <path
         d="m 165.9345,97.1609 -0.409,0.4346 -0.639,-0.1661 c 0,0 -0.9522,-3.2271 -1.6935,-3.6233 -0.7412,-0.3962 2.0194,0.4153 2.0194,0.4153 z"
         style="fill:#c4c6c8;fill-rule:evenodd"
         id="path11177"
         inkscape:connector-curvature="0" />
      <path
         d="m 164.9504,94.0298 0.5751,3.5657 1.4186,-0.3707 0.0384,-2.8117 z"
         style="fill:#9b9d9f;fill-rule:evenodd"
         id="path11179"
         inkscape:connector-curvature="0" />
      <path
         d="m 201.4734,90.3765 c -0.1093,-0.0547 -0.6922,-0.4371 -0.6922,-0.4371 0,0 -8.5096,-1.8588 -19.6975,-0.8384 -11.188,1.0204 -22.1027,3.6443 -26.4394,4.6464 -4.3367,1.0022 -10.4591,3.1159 -10.4591,3.1159 l -0.3826,0.4197 0.1544,0.5266 23.7786,-5.4751 17.7575,-2.0128 16.0219,1.918 z"
         style="fill:#ececed;fill-rule:evenodd"
         id="path11181"
         inkscape:connector-curvature="0" />
      <path
         d="m 223.6358,77.3384 -0.5832,0.6196 -0.9111,-0.2369 c 0,0 -1.3575,-4.601 -2.4144,-5.1658 -1.0568,-0.5649 2.8791,0.5922 2.8791,0.5922 z"
         style="fill:#c4c6c8;fill-rule:evenodd"
         id="path11183"
         inkscape:connector-curvature="0" />
      <path
         d="m 222.2327,72.8742 0.8199,5.0838 2.0226,-0.5285 0.0547,-4.0087 z"
         style="fill:#9b9d9f;fill-rule:evenodd"
         id="path11185"
         inkscape:connector-curvature="0" />
      <path
         d="m 230.6643,74.5787 c 0,0 -3.9723,0.7836 -15.306,6.8331 -11.3337,6.0495 -14.5771,8.5276 -14.5771,8.5276 l -0.0997,1.8408 2.0676,-0.7475 11.0057,-7.0699 12.0261,-6.341 6.334,-2.9546 z"
         style="fill:#ececed;fill-rule:evenodd"
         id="path11187"
         inkscape:connector-curvature="0" />
      <path
         d="m 202.3485,92.6992 -1.667,-0.919 c 0,0 -4.8751,-3.6808 -23.4244,-1.7129 -18.5494,1.9679 -33.4545,7.2157 -33.4545,7.2157 l -0.002,0.5726 0.4208,0.1744 c 0,0 16.2353,-4.2456 23.2687,-4.9381 7.0334,-0.6924 21.5377,-1.4941 21.5377,-1.4941 l 8.1632,1.6399 c 0,0 2.6967,1.3483 2.9518,1.2755 0.2551,-0.0729 2.2054,-1.814 2.2054,-1.814 z"
         style="fill:#c4c6c8;fill-opacity:0;fill-rule:evenodd"
         id="path11189"
         inkscape:connector-curvature="0" />
      <path
         d="m 231.4486,74.8159 c 0,0 -4.6847,1.7582 -8.6097,3.6991 -3.9249,1.9409 -9.4077,4.9132 -15.9256,9.0743 -6.518,4.1612 -6.2318,4.1909 -6.2318,4.1909 l -0.009,1.6489 c 0,0 2.6601,-1.0475 5.1746,-2.5781 2.5146,-1.5306 10.7143,-7.6166 13.7755,-9.2929 3.0611,-1.6764 12.7368,-6.5416 12.7368,-6.5416 z"
         style="fill:#d9dadb;fill-rule:evenodd"
         id="path11191"
         inkscape:connector-curvature="0" />
      <path
         d="m 386.1609,157.0373 v -20.408 c 0,0 -3.1651,-27.6966 -65.9922,-49.7079 -19.1126,-6.696 -45.1737,-11.5412 -63.9091,-14.3539 -42.8521,-6.4334 -72.5519,-4.3267 -72.5519,-4.3267 l 1.149,0.3863 c 0,0 30.2653,-0.4372 54.5362,4.3004 24.2709,4.7376 52.0403,11.2244 52.0403,11.2244 l 59.0374,29.7371 29.1541,40.5244 6.5362,8.4274 z"
         style="fill:#ececed;fill-rule:evenodd"
         id="path11193"
         inkscape:connector-curvature="0" />
      <path
         d="m 179.3823,68.7 4.191,-0.4554 c 0,0 11.1566,0.2116 32.9078,0.8382 21.7512,0.6266 61.0889,8.3065 89.5034,16.4356 28.4145,8.129 54.9557,25.3642 67.2004,42.2736 12.2448,16.9094 12.976,35.0488 12.976,35.0488 h -50.2933 l -4.6647,-44.6697 -55.0989,9.6672 -38.2024,0.0146 -28.6069,-10.5334 -2.2158,-5.9997 -0.2915,-5.1748 19.8555,-23.5478 5.554,-7.0462 -0.082,-0.8838 c 0,0 -27.9701,-4.9378 -41.782,-5.2293 -13.8118,-0.2915 -9.7669,-0.4738 -9.7669,-0.4738 l -1.0932,0.0091 -0.14,-0.1462 z"
         style="fill:#868789;fill-opacity:0;fill-rule:evenodd"
         id="path11195"
         inkscape:connector-curvature="0" />
      <path
         d="m 207.6055,113.1744 -0.062,2.663 0.3718,1.6007 0.8016,3.0793 9.5116,5.6487 16.4357,4.3367 21.6106,2.879 22.5215,-0.7288 22.303,-3.207 21.9386,8.6005 0.5831,-5.3935 -21.4648,-7.3615 -25.0727,3.5349 -20.3715,0.3645 -22.0114,-2.5145 -16.618,-5.0292 -8.9649,-5.2842 z"
         style="fill:#868789;fill-rule:evenodd"
         id="path11197"
         inkscape:connector-curvature="0" />
      <path
         d="m 252.949,128.761 c 0,0 30.9127,-1.6842 50.2274,-7.7337 19.3146,-6.0495 19.9705,-10.4955 26.7489,-9.7667 6.7783,0.7288 12.0261,13.8483 13.994,23.6149 1.9679,9.7667 -3.5712,27.9653 -3.5712,27.9653 h -18.2214 l 8.8919,-28.1111 -28.8624,-9.4382 -25.0727,3.5349 z"
         style="fill:#a6a6a6;fill-rule:evenodd"
         id="path11199"
         inkscape:connector-curvature="0" />
      <path
         d="m 207.5435,115.8374 0.8834,2.4763 9.3294,6.1952 14.6864,4.7374 21.3189,2.6968 24.1612,-0.0728 23.5421,-3.207 20.5174,7.2886 -3.4983,12.354 -3.0248,5.0291 -15.4517,-6.3046 -22.303,2.8789 -23.3233,-0.8017 -20.408,-4.5554 -14.5772,-7.1792 -8.4912,-6.6691 -2.6788,-7.5255 z"
         style="fill:#c4c6c8;fill-rule:evenodd"
         id="path11201"
         inkscape:connector-curvature="0" />
      <path
         d="m 245.9192,77.4473 0.3156,-0.4708 v 0 c 0,0 19.728,4.3338 35.2525,10.3833 15.5245,6.0495 22.8131,9.2564 20.1164,13.5567 -2.6967,4.3002 -20.1628,7.7853 -34.0061,8.7942 -13.8432,1.0089 15.2983,-3.1333 15.2983,-3.1333 0,0 10.7357,-1.0245 10.8771,-5.4746 0.1414,-4.4501 -11.083,-10.1716 -11.083,-10.1716 z"
         style="fill:#868789;fill-rule:evenodd"
         id="path11203"
         inkscape:connector-curvature="0" />
      <path
         d="m 325.5858,162.8408 c 0,0 1.4609,-1.836 3.9025,-7.594 2.4417,-5.758 3.7901,-13.9939 3.9358,-15.7432 0.1458,-1.7494 -0.1781,-5.149 -0.1781,-5.149 0,0 -0.5508,3.5819 -1.4618,7.2262 -0.9111,3.6442 -6.9606,19.2782 -6.9606,19.2782 l -1.2755,1.9818 z"
         style="fill:#868789;fill-rule:evenodd"
         id="path11205"
         inkscape:connector-curvature="0" />
      <path
         d="m 219.0516,124.9267 -1.2953,-0.4178 1.6397,12.8641 14.5772,7.1792 -1.5305,-15.3059 -5.3816,-1.7359 z"
         style="fill:#b1b3b4;fill-rule:evenodd"
         id="path11207"
         inkscape:connector-curvature="0" />
      <path
         d="m 243.5933,77.4521 1.1787,0.265 -0.7512,0.3803 -0.1091,1.1658 0.6764,0.157 0.68,2.6675 0.4371,2.97 c 0,0 14.2128,6.3411 20.7724,9.8396 6.5597,3.4985 15.3789,9.6208 15.3789,9.6208 l 1.0394,2.0593 c 0,0 -11.0983,2.4518 -12.7375,2.7512 -1.6392,0.2993 -3.4817,0.4193 -3.4817,0.4193 0,0 -11.7425,0.3868 -17.3547,-1.1802 -5.6122,-1.567 -8.2726,-3.9722 -8.2726,-3.9722 z"
         style="fill:#a1a1a1;fill-rule:evenodd"
         id="path11209"
         inkscape:connector-curvature="0" />
      <path
         d="m 245.0771,80.2201 -0.443,-0.785 -0.705,-0.1716 0.0917,-1.1661 1.0563,0.1366 c 0,0 6.04,1.5215 16.1347,4.7285 10.0947,3.207 21.7563,8.4548 24.3073,10.0582 2.551,1.6035 8.0904,4.3367 8.1268,6.3411 0.0364,2.0043 0.8017,3.4985 -1.6764,4.5189 -2.4781,1.0203 -8.1631,2.6967 -8.1631,2.6967 l -1.821,-1e-4 c 0,0 7.251,-2.806 7.506,-4.1543 0.2551,-1.3484 -6.669,-6.5598 -10.3497,-8.3819 -3.6808,-1.8221 -34.0646,-13.821 -34.0646,-13.821 z"
         style="fill:#c4c6c8;fill-rule:evenodd"
         id="path11211"
         inkscape:connector-curvature="0" />
      <path
         d="m 244.5881,79.4202 0.1711,6.5123 c 0,0 17.365,7.6348 26.3663,12.6639 9.0013,5.0291 10.8599,7.9809 10.8599,7.9809 0,0 6.4504,-2.1866 8.4548,-3.6807 5.8511,-4.3617 -29.3608,-17.9194 -30.7213,-18.3672 -11.2054,-3.8466 -15.1308,-5.1092 -15.1308,-5.1092 z"
         style="fill:#ececed;fill-rule:evenodd"
         id="path11213"
         inkscape:connector-curvature="0" />
      <path
         d="m 232.454,74.7691 c 0,0 -12.0995,5.338 -18.2214,9.5481 -6.1214,4.2102 -44.9704,29.5553 -55.0286,35.0944 -10.0581,5.5391 -70.2961,43.0138 -70.2961,43.0138 l 54.893,0.4151 c 0,0 28.0124,-20.4698 39.164,-30.0178 11.1515,-9.5481 23.2376,-21.4519 23.2376,-21.4519 l 2.7824,-7.1194 6.3412,-6.7785 9.1107,-8.1266 10.41,-8.0042 5.8432,-5.0058 z"
         style="fill:#868789;fill-rule:evenodd"
         id="path11215"
         inkscape:connector-curvature="0" />
      <path
         d="m 207.229,107.2689 c 0,0 -6.1951,6.0677 -8.3453,7.9991 -2.1502,1.9315 -19.0231,16.7637 -19.8612,17.4924 -0.8381,0.7288 -20.0072,15.2332 -20.0072,15.2332 l -20.6479,14.8056 2.3733,0.0178 6.941,-4.5466 20.7723,-15.2695 19.4968,-15.6703 19.0202,-17.9257 z"
         style="fill:#d9dadb;fill-rule:evenodd"
         id="path11217"
         inkscape:connector-curvature="0" />
      <path
         d="m 140.3521,162.8143 3.4488,0.0262 c 0,0 28.0124,-20.4698 39.164,-30.0178 11.1515,-9.5481 23.2376,-21.4519 23.2376,-21.4519 l 0.6541,-1.6728 0.0764,-0.9655 c 0,0 -21.3147,19.8013 -29.842,26.4338 -8.5273,6.6325 -36.7389,27.648 -36.7389,27.648 z"
         style="fill:#b1b3b4;fill-rule:evenodd"
         id="path11219"
         inkscape:connector-curvature="0" />
      <path
         d="m 133.5638,162.4254 c 0.0515,0.004 31.7042,-23.5331 52.4996,-40.6772 17.0116,-14.0244 49.1854,-41.368 51.705,-42.9092"
         style="fill:none;stroke:#c4c6c8;stroke-width:0.3443;stroke-linecap:butt;stroke-linejoin:miter;stroke-dasharray:1.7217, 1.033, 1.7217, 1.033"
         id="path11221"
         inkscape:connector-curvature="0" />
      <path
         d="m 217.4479,75.8786 -0.514,0.5461 -0.8032,-0.2088 c 0,0 -1.1966,-4.0557 -2.1282,-4.5537 -0.9316,-0.4979 2.5378,0.5221 2.5378,0.5221 z"
         style="fill:#c4c6c8;fill-rule:evenodd"
         id="path11223"
         inkscape:connector-curvature="0" />
      <path
         d="m 216.2111,71.9434 0.7228,4.4813 1.7829,-0.4658 0.0482,-3.5337 z"
         style="fill:#9b9d9f;fill-rule:evenodd"
         id="path11225"
         inkscape:connector-curvature="0" />
      <path
         d="m 209.3178,74.186 -0.4089,0.4345 -0.6391,-0.1661 c 0,0 -0.9522,-3.2271 -1.6934,-3.6233 -0.7413,-0.3962 2.0193,0.4154 2.0193,0.4154 z"
         style="fill:#c4c6c8;fill-rule:evenodd"
         id="path11227"
         inkscape:connector-curvature="0" />
      <path
         d="m 237.7751,76.0264 c 0,0 -8.1084,3.4804 -17.9482,11.8621 -9.8394,8.382 -34.329,28.2432 -40.0141,32.6892 -5.6851,4.446 -55.1504,42.1179 -55.1504,42.1179 l -11.5691,-0.0875 c 0,0 52.5797,-35.9086 69.9264,-49.2463 17.3467,-13.3377 31.7051,-23.8335 38.702,-28.9353 6.9972,-5.102 15.1568,-8.4196 15.1568,-8.4196 z"
         style="fill:#c4c6c8;fill-rule:evenodd"
         id="path11229"
         inkscape:connector-curvature="0" />
      <path
         d="m 208.3338,71.0548 0.5751,3.5657 1.4186,-0.3706 0.0383,-2.8117 z"
         style="fill:#9b9d9f;fill-rule:evenodd"
         id="path11231"
         inkscape:connector-curvature="0" />
      <path
         d="m 246.7337,77.4821 -0.4989,-0.5056 c 0,0 -20.6197,-4.7238 -34.9417,-6.3638 -14.322,-1.6399 -31.9603,-1.7857 -31.9603,-1.7857 l 0.0498,0.3324 c 0,0 19.3559,0.6013 34.589,2.7514 15.2332,2.1501 32.1791,6.1224 32.1791,6.1224 z"
         style="fill:#f0f0f0;fill-rule:evenodd"
         id="path11233"
         inkscape:connector-curvature="0" />
      <path
         d="m 244.0208,78.0974 c 0,0 8.3726,2.2503 23.2777,7.5709 14.9051,5.3206 23.1776,11.2243 25.1091,13.3016 1.9315,2.0773 0.1094,4.0451 -2.4052,5.0655 -2.5146,1.0205 -15.1603,4.5918 -22.0844,5.5029 -6.9242,0.9112 18.6954,-1.7129 24.6356,-4.9928 5.9401,-3.2798 5.6851,-6.7782 2.2959,-8.819 -3.3893,-2.0408 -21.2828,-10.3133 -32.1063,-13.5933 -10.4237,-3.1587 -16.5084,-5.1567 -16.5084,-5.1567 z"
         style="fill:#d9dadb;fill-rule:evenodd"
         id="path11235"
         inkscape:connector-curvature="0" />
      <path
         d="m 202.0607,94.6303 c 0,0 -2.2229,-3.6443 -13.8847,-3.7169 -11.6616,-0.073 -20.4446,1.1661 -28.8263,2.9882 -8.382,1.8221 -15.5488,3.9538 -15.5488,3.9538 v 0.6305 0.6635 c 0,0 17.4436,-4.4097 29.4699,-4.8471 12.0263,-0.437 14.4311,1.1664 12.6456,3.3163 -1.7855,2.1498 -104.575,64.8068 -104.575,64.8068 h 10.6822 l 73.3755,-44.5446 34.4021,-21.2826 z"
         style="fill:#868789;fill-opacity:0;fill-rule:evenodd"
         id="path11237"
         inkscape:connector-curvature="0" />
      <path
         d="m 143.8009,98.9813 v 0.168 c 0,0 17.4437,-4.4095 29.4699,-4.8469 8.4064,-0.3057 12.111,0.386 12.9702,1.5642 l 0.0206,-0.0225 c 0,0 -0.38,-1.2195 -4.0754,-1.6821 -3.6953,-0.4626 -10.2039,-0.5833 -20.3715,1.0931 -10.1675,1.6764 -18.0138,3.7262 -18.0138,3.7262 z"
         style="fill:#d9dadb;fill-rule:evenodd"
         id="path11239"
         inkscape:connector-curvature="0" />
      <path
         d="m 241.5815,98.4633 c 0,0 -1.9541,7.1045 7.0344,9.1377 8.9886,2.0333 18.0608,2.1469 18.0608,2.1469 0,0 -15.2448,1.7778 -22.6063,-1.4656 -7.3615,-3.2435 -2.6443,-9.8215 -2.4889,-9.819 z"
         style="fill:#d9dadb;fill-rule:evenodd"
         id="path11241"
         inkscape:connector-curvature="0" />
      <path
         d="m 241.9642,81.7959 c 0,0 -36.8279,31.369 2.3662,35.7588 39.1942,4.3898 71.8313,-13.6016 71.8313,-13.6016"
         style="fill:none;stroke:#c4c6c8;stroke-width:0.3443;stroke-linecap:butt;stroke-linejoin:miter;stroke-dasharray:1.7217, 1.7217, 1.7217, 1.7217"
         id="path11243"
         inkscape:connector-curvature="0" />
      <path
         d="m 232.9624,76.2199 c 0,0 -8.3359,4.1956 -17.344,9.614 -5.1336,3.0878 -10.3871,6.8196 -14.6874,9.7806 -5.3575,3.6886 -17.5328,12.4074 -29.8215,19.5732 -14.8809,8.6777 -72.4089,47.312 -72.4089,47.312"
         style="fill:none;stroke:#c4c6c8;stroke-width:0.3443;stroke-linecap:butt;stroke-linejoin:miter;stroke-dasharray:1.7217, 1.033, 1.7217, 1.033"
         id="path11245"
         inkscape:connector-curvature="0" />
      <path
         d="m 182.2822,68.385 c 0,0 27.0611,-0.311 55.4172,3.6071 28.356,3.9181 125.8,19.3813 129.59,90.8487"
         style="fill:none;fill-opacity:0;stroke:#c4c6c8;stroke-width:0.3443;stroke-linecap:butt;stroke-linejoin:miter;stroke-dasharray:1.7217, 1.7217, 1.7217, 1.7217"
         id="path11247"
         inkscape:connector-curvature="0" />
      <path
         d="m 194.66,96.6637 c 0,0 -4.8105,-6.1223 -24.3073,-3.4985 -19.4968,2.6238 -26.5518,5.3207 -26.5518,5.3207"
         style="fill:none;stroke:#c4c6c8;stroke-width:0.2755;stroke-linecap:butt;stroke-linejoin:miter;stroke-dasharray:1.3774, 1.3774, 1.3774, 1.3774"
         id="path11249"
         inkscape:connector-curvature="0" />
      <path
         d="m 234.8469,81.342 -12.427,9.0379 -10.933,9.6208 -4.0087,4.8834 -1.2755,6.4868 2.3323,5.5029 9.4386,5.5393 14.5042,4.7376 21.3919,2.7696 24.0158,-0.4738 23.87,-3.4255 21.2826,7.4343 -1.0558,2.4966 -3.4983,12.354 -3.0248,5.0291 -5.832,9.5058 h 14.7594 c 0,0 2.2413,-3.8209 2.9337,-5.2968 4.5545,-9.7084 4.7603,-12.7309 5.9257,-23.1894 l -3.5934,-1.2821 -27.2591,-8.3089 -24.4895,3.061 -23.87,0.1823 -20.2257,-2.551 -14.1401,-4.0087 -9.5845,-5.3571 -2.0774,-4.9199 1.0204,-5.6122 3.3163,-4.6646 10.7871,-10.0218 z"
         style="fill:#ececed;fill-rule:evenodd"
         id="path11251"
         inkscape:connector-curvature="0" />
      <path
         d="m 253.7616,131.9431 0.6196,17.1645 23.3233,0.8017 0.2183,-18.039 z"
         style="fill:#b1b3b4;fill-rule:evenodd"
         id="path11253"
         inkscape:connector-curvature="0" />
      <path
         d="m 315.4592,153.335 -15.4517,-6.3046 1.4574,-18.3671 20.5174,7.2886 -3.4983,12.354 z"
         style="fill:#a1a1a1;fill-rule:evenodd"
         id="path11255"
         inkscape:connector-curvature="0" />
      <path
         d="m 83.7154,162.4254 h -2.374 l 69.5735,-43.2126 26.8218,-16.0168 c 0,0 8.0448,-4.6828 8.3089,-5.3207 0.2641,-0.6379 0.6005,-0.8656 0.6005,-0.8656 l 0.008,0.146 c 0.039,1.4449 -0.9673,2.1322 -0.9673,2.1322 v 4e-4 z"
         style="fill:#c4c6c8;fill-rule:evenodd"
         id="path11257"
         inkscape:connector-curvature="0" />
      <path
         d="m 186.1109,95.7137 c 0.5286,0.5386 0.9945,0.4733 -0.1945,1.9049 -1.1889,1.4315 -106.133,64.8068 -106.133,64.8068 h 1.558 c 0,0 104.3221,-63.2017 105.0507,-64.6228 0.7287,-1.4211 -0.2809,-2.0893 -0.2809,-2.0893 z"
         style="fill:#f0f0f0;fill-rule:evenodd"
         id="path11259"
         inkscape:connector-curvature="0" />
    </g>
    <path
       d="m 98.6751,118.3078 a 0.3325,0.3325 0 0 1 0.3326,0.3325 0.3325,0.3325 0 1 1 -0.3326,-0.3325 z"
       style="fill:#1b1918;fill-rule:evenodd"
       id="path11262"
       inkscape:connector-curvature="0" />
    <path
       d="m 243.1094,82.6111 -15.2294,-5.7303 4.0473,-1.8765 11.6657,2.448 z"
       style="fill:#1b1918;fill-opacity:0;fill-rule:evenodd"
       id="path11264"
       inkscape:connector-curvature="0" />
  </g>
  <text
     x="4.9282637"
     y="-11.098786"
     id="text11291">
    <tspan
       font-size="10.0000"
       id="tspan11289"
       style="font-size:10px;font-family:'Gilroy ExtraBold';fill:#000000">ЭНЕРГЕТИКА</tspan>
  </text>
  <defs
     id="defs11727">
    <linearGradient
       id="grad68">
      <stop
         offset="0.0000%"
         stop-color="#e01919"
         stop-opacity="1.0000"
         id="stop11719" />
      <stop
         offset="12.0000%"
         stop-color="#ffffff"
         stop-opacity="1.0000"
         id="stop11721" />
      <stop
         offset="0.0000%"
         stop-color="#d6d6d6"
         stop-opacity="1.0000"
         id="stop11723" />
    </linearGradient>
    <linearGradient
       xlink:href="#grad68"
       id="grad69"
       x1="104.73468"
       y1="23.682042"
       x2="104.73468"
       y2="40.191701"
       gradientTransform="matrix(2.4091844,0,0,0.41507823,-68.781636,-65.598985)"
       gradientUnits="userSpaceOnUse" />
  </defs>
  <path
     d="m 184.22996,-48.916285 h 35.9543 c 0.5076,0 0.883,-0.4517 1.0733,-0.9223 l 2.025,-5.0082 c 0.1904,-0.4705 -0.4171,-0.9223 -0.9223,-0.9223 h -35.5031 c -0.5052,0 -1.0445,0.4547 -1.2331,0.9223 l -2.025,5.0082 c -0.1886,0.4671 0.1234,0.9223 0.6309,0.9223 z"
     style="fill:url(#grad69)"
     id="path11729"
     inkscape:connector-curvature="0" />
  <text
     x="118.94987"
     y="-51.307686"
     id="text11737">
    <tspan
       font-size="3.5000"
       id="tspan11731"
       style="font-size:3.5px;font-family:HeliosLightC;fill:#000000">О</tspan>
    <tspan
       font-size="3.5000"
       id="tspan11733"
       style="font-size:3.5px;font-family:HeliosLightC;fill:#000000" />
    <tspan
       font-size="3.5000"
       id="tspan11735"
       style="font-size:3.5px;font-family:HeliosLightC;fill:#000000">компании</tspan>
  </text>
  <text
     x="157.05717"
     y="-50.639584"
     id="text11741">
    <tspan
       font-size="3.5000"
       id="tspan11739"
       style="font-size:3.5px;font-family:HeliosLightC;fill:#000000">Проекты</tspan>
  </text>
  <text
     x="188.64308"
     y="-50.926186"
     id="text11749">
    <tspan
       font-size="3.0000"
       id="tspan11743"
       style="font-size:3px;font-family:HeliosLightC;fill:#fefefe">Сфера</tspan>
    <tspan
       font-size="3.0000"
       id="tspan11745"
       style="font-size:3px;font-family:HeliosLightC;fill:#fefefe" />
    <tspan
       font-size="3.0000"
       id="tspan11747"
       style="font-size:3px;font-family:HeliosLightC;fill:#fefefe">деятельности</tspan>
  </text>
  <text
     x="237.77678"
     y="-51.324684"
     id="text11753">
    <tspan
       font-size="3.5000"
       id="tspan11751"
       style="font-size:3.5px;font-family:HeliosLightC;fill:#000000">Контакты</tspan>
  </text>
  <defs
     id="defs11763">
    <linearGradient
       id="grad70">
      <stop
         offset="0.0000%"
         stop-color="#ececec"
         stop-opacity="1.0000"
         id="stop11755" />
      <stop
         offset="12.0000%"
         stop-color="#ffffff"
         stop-opacity="1.0000"
         id="stop11757" />
      <stop
         offset="0.0000%"
         stop-color="#d6d6d6"
         stop-opacity="1.0000"
         id="stop11759" />
    </linearGradient>
    <linearGradient
       xlink:href="#grad70"
       id="grad71"
       x1="104.73468"
       y1="40.882173"
       x2="104.73468"
       y2="57.391832"
       gradientTransform="matrix(2.4091844,0,0,0.41507823,-68.781636,-65.598985)"
       gradientUnits="userSpaceOnUse" />
  </defs>
  <path
     d="m 184.22996,-41.776885 h 35.9543 c 0.5076,0 0.883,-0.4518 1.0733,-0.9223 l 2.025,-5.0082 c 0.1904,-0.4706 -0.4171,-0.9223 -0.9223,-0.9223 h -35.5031 c -0.5052,0 -1.0445,0.4547 -1.2331,0.9223 l -2.025,5.0082 c -0.1886,0.467 0.1234,0.9223 0.6309,0.9223 z"
     style="fill:url(#grad71)"
     id="path11765"
     inkscape:connector-curvature="0" />
  <text
     x="173.70627"
     y="-43.094284"
     id="text11781">
    <tspan
       font-size="2.0000"
       id="tspan11767"
       style="font-size:2px;font-family:HeliosLightC;fill:#262626">Дорожное</tspan>
    <tspan
       font-size="2.0000"
       id="tspan11769"
       style="font-size:2px;font-family:HeliosLightC;fill:#262626" />
    <tspan
       font-size="2.0000"
       id="tspan11771"
       style="font-size:2px;font-family:HeliosLightC;fill:#262626">и</tspan>
    <tspan
       font-size="2.0000"
       id="tspan11773"
       style="font-size:2px;font-family:HeliosLightC;fill:#262626" />
    <tspan
       font-size="2.0000"
       id="tspan11775"
       style="font-size:2px;font-family:HeliosLightC;fill:#262626">инфраструктурное</tspan>
    <tspan
       font-size="2.0000"
       id="tspan11777"
       style="font-size:2px;font-family:HeliosLightC;fill:#262626" />
    <tspan
       font-size="2.0000"
       id="tspan11779"
       style="font-size:2px;font-family:HeliosLightC;fill:#262626">строительство</tspan>
  </text>
  <defs
     id="defs11791">
    <linearGradient
       id="grad72">
      <stop
         offset="0.0000%"
         stop-color="#ececec"
         stop-opacity="1.0000"
         id="stop11783" />
      <stop
         offset="12.0000%"
         stop-color="#ffffff"
         stop-opacity="1.0000"
         id="stop11785" />
      <stop
         offset="0.0000%"
         stop-color="#d6d6d6"
         stop-opacity="1.0000"
         id="stop11787" />
    </linearGradient>
    <linearGradient
       xlink:href="#grad72"
       id="grad73"
       x1="104.73468"
       y1="58.195536"
       x2="104.73468"
       y2="74.705195"
       gradientTransform="matrix(2.4091844,0,0,0.41507823,-68.781636,-65.598985)"
       gradientUnits="userSpaceOnUse" />
  </defs>
  <path
     d="m 184.22996,-34.590485 h 35.9543 c 0.5076,0 0.883,-0.4518 1.0733,-0.9224 l 2.025,-5.0081 c 0.1904,-0.4706 -0.4171,-0.9223 -0.9223,-0.9223 h -35.5031 c -0.5052,0 -1.0445,0.4547 -1.2331,0.9223 l -2.025,5.0081 c -0.1886,0.4671 0.1234,0.9224 0.6309,0.9224 z"
     style="fill:url(#grad73)"
     id="path11793"
     inkscape:connector-curvature="0" />
  <text
     x="198.03227"
     y="-37.093086"
     id="text11797">
    <tspan
       font-size="2.0000"
       id="tspan11795"
       style="font-size:2px;font-family:HeliosLightC;fill:#262626">Энергетика</tspan>
  </text>
  <g
     id="Layer1009"
     transform="translate(-68.781636,-65.598985)">
    <path
       d="m 276.2369,18.9985 1.6937,-0.3198 -0.0917,-0.4328 0.0798,-0.0868 0.0749,-0.1572 -0.0327,-0.4378 0.0421,-0.0342 -0.0535,-0.5474 -0.1889,-0.7418 -0.0913,-0.0664 -0.2047,-0.1295 -0.5073,-0.1284 -0.3044,0.008 -0.2316,-0.0804 -0.4264,-0.0198 -0.1532,-0.7423 -0.2514,-0.0882 -0.2087,0.0074 -0.0432,0.1622 0.2355,1.7622 -0.3495,-0.0447 -0.4071,0.0342 0.0654,0.3749 0.2693,0.1269 0.2281,0.2311 0.171,0.293 0.2341,0.2916 0.3857,0.4447 z"
       style="fill:#ffffff;fill-rule:evenodd"
       id="path11799"
       inkscape:connector-curvature="0" />
    <g
       id="Layer1010">
      <path
         d="m 275.1372,15.158 0.4826,2.448 0.216,-0.0426 -0.4827,-2.4479 z"
         style="fill:#1b1918;fill-rule:evenodd"
         id="path11801"
         inkscape:connector-curvature="0" />
      <path
         d="m 275.5206,17.0529 -0.0393,-0.1991 -0.1713,0.0338 0.0392,0.1991 z"
         style="fill:#1b1918;fill-rule:evenodd"
         id="path11803"
         inkscape:connector-curvature="0" />
      <path
         d="m 275.315,16.8951 -0.0387,-0.1964 -0.5763,0.1136 0.0388,0.1964 z"
         style="fill:#1b1918;fill-rule:evenodd"
         id="path11805"
         inkscape:connector-curvature="0" />
      <path
         d="m 274.7291,16.9596 0.0835,0.4236 0.1869,-0.0369 -0.0835,-0.4235 z"
         style="fill:#1b1918;fill-rule:evenodd"
         id="path11807"
         inkscape:connector-curvature="0" />
      <path
         d="m 275.3482,15.1164 -0.0404,-0.2049 0.3731,-0.0736 0.0404,0.205 z"
         style="fill:#1b1918;fill-rule:evenodd"
         id="path11809"
         inkscape:connector-curvature="0" />
      <path
         d="m 275.7198,15.035 0.3362,1.705 0.197,-0.0388 -0.3362,-1.7051 z"
         style="fill:#1b1918;fill-rule:evenodd"
         id="path11811"
         inkscape:connector-curvature="0" />
      <path
         d="m 276.0587,15.7476 0.0376,0.191 0.3806,-0.0751 -0.0377,-0.1909 z"
         style="fill:#1b1918;fill-rule:evenodd"
         id="path11813"
         inkscape:connector-curvature="0" />
      <path
         d="m 276.4699,15.86 0.0406,0.2058 0.5775,-0.1139 -0.0405,-0.2058 z"
         style="fill:#1b1918;fill-rule:evenodd"
         id="path11815"
         inkscape:connector-curvature="0" />
      <path
         d="m 276.4869,15.9463 0.1345,0.6822 0.1971,-0.0388 -0.1346,-0.6822 z"
         style="fill:#1b1918;fill-rule:evenodd"
         id="path11817"
         inkscape:connector-curvature="0" />
      <path
         d="m 277.0799,15.944 0.0396,0.2008 0.3933,-0.0776 -0.0395,-0.2007 z"
         style="fill:#1b1918;fill-rule:evenodd"
         id="path11819"
         inkscape:connector-curvature="0" />
      <path
         d="m 277.0799,15.944 0.1502,0.7621 0.1971,-0.0388 -0.1503,-0.7621 z"
         style="fill:#1b1918;fill-rule:evenodd"
         id="path11821"
         inkscape:connector-curvature="0" />
      <path
         d="m 277.5011,16.0541 0.0403,0.2044 0.2045,-0.0403 -0.0403,-0.2044 z"
         style="fill:#1b1918;fill-rule:evenodd"
         id="path11823"
         inkscape:connector-curvature="0" />
      <path
         d="m 277.7243,16.2225 0.2622,1.3299 0.2085,-0.0411 -0.2622,-1.3299 z"
         style="fill:#1b1918;fill-rule:evenodd"
         id="path11825"
         inkscape:connector-curvature="0" />
      <path
         d="m 277.9918,17.5297 0.1168,0.5921 -0.1896,0.0373 -0.1168,-0.592 z"
         style="fill:#1b1918;fill-rule:evenodd"
         id="path11827"
         inkscape:connector-curvature="0" />
      <path
         d="m 277.7358,18.1904 0.1112,0.5641 0.1876,-0.037 -0.1112,-0.5641 z"
         style="fill:#1b1918;fill-rule:evenodd"
         id="path11829"
         inkscape:connector-curvature="0" />
      <path
         d="m 278.0346,18.7175 -0.0359,-0.1822 -1.896,0.3738 0.0359,0.1823 z"
         style="fill:#1b1918;fill-rule:evenodd"
         id="path11831"
         inkscape:connector-curvature="0" />
      <path
         d="m 276.0246,18.5134 0.114,0.578 0.1876,-0.037 -0.114,-0.578 z"
         style="fill:#1b1918;fill-rule:evenodd"
         id="path11833"
         inkscape:connector-curvature="0" />
      <path
         d="m 275.7376,18.1831 0.0734,0.3724 0.2227,-0.0439 -0.0734,-0.3724 z"
         style="fill:#1b1918;fill-rule:evenodd"
         id="path11835"
         inkscape:connector-curvature="0" />
      <path
         d="m 275.4882,17.8355 0.0758,0.3843 0.1943,-0.0383 -0.0758,-0.3843 z"
         style="fill:#1b1918;fill-rule:evenodd"
         id="path11837"
         inkscape:connector-curvature="0" />
      <path
         d="m 274.9938,17.3404 0.0405,0.2058 0.2058,-0.0406 -0.0405,-0.2058 z"
         style="fill:#1b1918;fill-rule:evenodd"
         id="path11839"
         inkscape:connector-curvature="0" />
      <path
         d="m 275.2247,17.4947 0.0758,0.3843 0.1943,-0.0383 -0.0758,-0.3843 z"
         style="fill:#1b1918;fill-rule:evenodd"
         id="path11841"
         inkscape:connector-curvature="0" />
    </g>
  </g>
  <text
     x="89.618355"
     y="-50.639584"
     id="text11847">
    <tspan
       font-size="3.5000"
       id="tspan11845"
       style="font-size:3.5px;font-family:HeliosLightC;fill:#000000">Услуги</tspan>
  </text>
</svg>
